<mxfile host="app.diagrams.net" modified="2024-03-03T18:50:30.201Z" agent="Mozilla/5.0 (Windows NT 10.0; Win64; x64) AppleWebKit/537.36 (KHTML, like Gecko) Chrome/122.0.0.0 Safari/537.36" etag="CqjrMsDgJ6GUNM7CU-7w" version="24.0.0" type="device">
  <diagram name="Page-1" id="6_fus6vg4l7m-ZtgdOSW">
    <mxGraphModel dx="2600" dy="2028" grid="1" gridSize="10" guides="1" tooltips="1" connect="1" arrows="1" fold="1" page="1" pageScale="1" pageWidth="850" pageHeight="1100" math="0" shadow="0">
      <root>
        <mxCell id="0" />
        <mxCell id="1" parent="0" />
        <mxCell id="j57Bn9toDHAoZNaTp7Lq-3" value="" style="edgeStyle=orthogonalEdgeStyle;rounded=0;orthogonalLoop=1;jettySize=auto;html=1;" edge="1" parent="1" source="j57Bn9toDHAoZNaTp7Lq-1" target="j57Bn9toDHAoZNaTp7Lq-2">
          <mxGeometry relative="1" as="geometry" />
        </mxCell>
        <mxCell id="j57Bn9toDHAoZNaTp7Lq-1" value="start" style="ellipse;whiteSpace=wrap;html=1;" vertex="1" parent="1">
          <mxGeometry x="140" y="70" width="120" height="80" as="geometry" />
        </mxCell>
        <mxCell id="j57Bn9toDHAoZNaTp7Lq-5" value="" style="edgeStyle=orthogonalEdgeStyle;rounded=0;orthogonalLoop=1;jettySize=auto;html=1;" edge="1" parent="1" source="j57Bn9toDHAoZNaTp7Lq-2" target="j57Bn9toDHAoZNaTp7Lq-4">
          <mxGeometry relative="1" as="geometry" />
        </mxCell>
        <mxCell id="j57Bn9toDHAoZNaTp7Lq-2" value="a" style="shape=parallelogram;perimeter=parallelogramPerimeter;whiteSpace=wrap;html=1;fixedSize=1;" vertex="1" parent="1">
          <mxGeometry x="140" y="210" width="120" height="60" as="geometry" />
        </mxCell>
        <mxCell id="j57Bn9toDHAoZNaTp7Lq-7" value="" style="edgeStyle=orthogonalEdgeStyle;rounded=0;orthogonalLoop=1;jettySize=auto;html=1;" edge="1" parent="1" source="j57Bn9toDHAoZNaTp7Lq-4" target="j57Bn9toDHAoZNaTp7Lq-6">
          <mxGeometry relative="1" as="geometry" />
        </mxCell>
        <mxCell id="j57Bn9toDHAoZNaTp7Lq-9" value="" style="edgeStyle=orthogonalEdgeStyle;rounded=0;orthogonalLoop=1;jettySize=auto;html=1;" edge="1" parent="1" source="j57Bn9toDHAoZNaTp7Lq-4" target="j57Bn9toDHAoZNaTp7Lq-8">
          <mxGeometry relative="1" as="geometry" />
        </mxCell>
        <mxCell id="j57Bn9toDHAoZNaTp7Lq-4" value="a&amp;gt;0 &amp;amp;&amp;amp; (a%2==1 || a%2==0)" style="rhombus;whiteSpace=wrap;html=1;" vertex="1" parent="1">
          <mxGeometry x="160" y="330" width="80" height="80" as="geometry" />
        </mxCell>
        <mxCell id="j57Bn9toDHAoZNaTp7Lq-17" style="edgeStyle=orthogonalEdgeStyle;rounded=0;orthogonalLoop=1;jettySize=auto;html=1;" edge="1" parent="1" source="j57Bn9toDHAoZNaTp7Lq-6" target="j57Bn9toDHAoZNaTp7Lq-16">
          <mxGeometry relative="1" as="geometry">
            <Array as="points">
              <mxPoint y="700" />
            </Array>
          </mxGeometry>
        </mxCell>
        <mxCell id="j57Bn9toDHAoZNaTp7Lq-6" value="Eded natural deil ve ya musbet deil" style="shape=document;whiteSpace=wrap;html=1;boundedLbl=1;" vertex="1" parent="1">
          <mxGeometry x="-20" y="330" width="120" height="80" as="geometry" />
        </mxCell>
        <mxCell id="j57Bn9toDHAoZNaTp7Lq-11" value="" style="edgeStyle=orthogonalEdgeStyle;rounded=0;orthogonalLoop=1;jettySize=auto;html=1;" edge="1" parent="1" source="j57Bn9toDHAoZNaTp7Lq-8" target="j57Bn9toDHAoZNaTp7Lq-10">
          <mxGeometry relative="1" as="geometry" />
        </mxCell>
        <mxCell id="j57Bn9toDHAoZNaTp7Lq-13" value="" style="edgeStyle=orthogonalEdgeStyle;rounded=0;orthogonalLoop=1;jettySize=auto;html=1;" edge="1" parent="1" source="j57Bn9toDHAoZNaTp7Lq-8" target="j57Bn9toDHAoZNaTp7Lq-12">
          <mxGeometry relative="1" as="geometry" />
        </mxCell>
        <mxCell id="j57Bn9toDHAoZNaTp7Lq-8" value="a%3==0 &amp;amp;&amp;amp; a%7==0" style="rhombus;whiteSpace=wrap;html=1;" vertex="1" parent="1">
          <mxGeometry x="320" y="450" width="80" height="80" as="geometry" />
        </mxCell>
        <mxCell id="j57Bn9toDHAoZNaTp7Lq-19" style="edgeStyle=orthogonalEdgeStyle;rounded=0;orthogonalLoop=1;jettySize=auto;html=1;" edge="1" parent="1" source="j57Bn9toDHAoZNaTp7Lq-10" target="j57Bn9toDHAoZNaTp7Lq-16">
          <mxGeometry relative="1" as="geometry">
            <Array as="points">
              <mxPoint x="520" y="690" />
            </Array>
          </mxGeometry>
        </mxCell>
        <mxCell id="j57Bn9toDHAoZNaTp7Lq-10" value="bolunur" style="shape=document;whiteSpace=wrap;html=1;boundedLbl=1;" vertex="1" parent="1">
          <mxGeometry x="460" y="450" width="120" height="80" as="geometry" />
        </mxCell>
        <mxCell id="j57Bn9toDHAoZNaTp7Lq-18" style="edgeStyle=orthogonalEdgeStyle;rounded=0;orthogonalLoop=1;jettySize=auto;html=1;" edge="1" parent="1" source="j57Bn9toDHAoZNaTp7Lq-12" target="j57Bn9toDHAoZNaTp7Lq-16">
          <mxGeometry relative="1" as="geometry" />
        </mxCell>
        <mxCell id="j57Bn9toDHAoZNaTp7Lq-12" value="bolunmur" style="shape=document;whiteSpace=wrap;html=1;boundedLbl=1;" vertex="1" parent="1">
          <mxGeometry x="140" y="450" width="120" height="80" as="geometry" />
        </mxCell>
        <mxCell id="j57Bn9toDHAoZNaTp7Lq-16" value="end" style="ellipse;whiteSpace=wrap;html=1;" vertex="1" parent="1">
          <mxGeometry x="220" y="660" width="120" height="80" as="geometry" />
        </mxCell>
        <mxCell id="j57Bn9toDHAoZNaTp7Lq-22" value="" style="edgeStyle=orthogonalEdgeStyle;rounded=0;orthogonalLoop=1;jettySize=auto;html=1;" edge="1" parent="1" source="j57Bn9toDHAoZNaTp7Lq-20" target="j57Bn9toDHAoZNaTp7Lq-21">
          <mxGeometry relative="1" as="geometry" />
        </mxCell>
        <mxCell id="j57Bn9toDHAoZNaTp7Lq-20" value="start" style="ellipse;whiteSpace=wrap;html=1;" vertex="1" parent="1">
          <mxGeometry x="1020" y="-290" width="120" height="80" as="geometry" />
        </mxCell>
        <mxCell id="j57Bn9toDHAoZNaTp7Lq-26" value="" style="edgeStyle=orthogonalEdgeStyle;rounded=0;orthogonalLoop=1;jettySize=auto;html=1;" edge="1" parent="1" source="j57Bn9toDHAoZNaTp7Lq-21" target="j57Bn9toDHAoZNaTp7Lq-25">
          <mxGeometry relative="1" as="geometry" />
        </mxCell>
        <mxCell id="j57Bn9toDHAoZNaTp7Lq-21" value="M , N , temp , sum=0" style="shape=parallelogram;perimeter=parallelogramPerimeter;whiteSpace=wrap;html=1;fixedSize=1;" vertex="1" parent="1">
          <mxGeometry x="1030" y="190" width="150" height="80" as="geometry" />
        </mxCell>
        <mxCell id="j57Bn9toDHAoZNaTp7Lq-35" value="" style="edgeStyle=orthogonalEdgeStyle;rounded=0;orthogonalLoop=1;jettySize=auto;html=1;" edge="1" parent="1" source="j57Bn9toDHAoZNaTp7Lq-23" target="j57Bn9toDHAoZNaTp7Lq-34">
          <mxGeometry relative="1" as="geometry" />
        </mxCell>
        <mxCell id="j57Bn9toDHAoZNaTp7Lq-23" value="for(var i =M;i&amp;lt;=N;i++)" style="shape=hexagon;perimeter=hexagonPerimeter2;whiteSpace=wrap;html=1;fixedSize=1;" vertex="1" parent="1">
          <mxGeometry x="1040" y="550" width="120" height="80" as="geometry" />
        </mxCell>
        <mxCell id="j57Bn9toDHAoZNaTp7Lq-30" value="" style="edgeStyle=orthogonalEdgeStyle;rounded=0;orthogonalLoop=1;jettySize=auto;html=1;entryX=0.5;entryY=0;entryDx=0;entryDy=0;" edge="1" parent="1" source="j57Bn9toDHAoZNaTp7Lq-25" target="j57Bn9toDHAoZNaTp7Lq-23">
          <mxGeometry relative="1" as="geometry">
            <mxPoint x="1200" y="390" as="targetPoint" />
          </mxGeometry>
        </mxCell>
        <mxCell id="j57Bn9toDHAoZNaTp7Lq-32" value="" style="edgeStyle=orthogonalEdgeStyle;rounded=0;orthogonalLoop=1;jettySize=auto;html=1;" edge="1" parent="1" source="j57Bn9toDHAoZNaTp7Lq-25" target="j57Bn9toDHAoZNaTp7Lq-31">
          <mxGeometry relative="1" as="geometry" />
        </mxCell>
        <mxCell id="j57Bn9toDHAoZNaTp7Lq-25" value="M&amp;lt;N" style="rhombus;whiteSpace=wrap;html=1;" vertex="1" parent="1">
          <mxGeometry x="1060" y="350" width="80" height="80" as="geometry" />
        </mxCell>
        <mxCell id="j57Bn9toDHAoZNaTp7Lq-33" style="edgeStyle=orthogonalEdgeStyle;rounded=0;orthogonalLoop=1;jettySize=auto;html=1;" edge="1" parent="1" source="j57Bn9toDHAoZNaTp7Lq-31" target="j57Bn9toDHAoZNaTp7Lq-23">
          <mxGeometry relative="1" as="geometry">
            <Array as="points">
              <mxPoint x="940" y="590" />
            </Array>
          </mxGeometry>
        </mxCell>
        <mxCell id="j57Bn9toDHAoZNaTp7Lq-31" value="temp = M&amp;nbsp;&lt;div&gt;M=N&lt;/div&gt;&lt;div&gt;N=temp&lt;/div&gt;" style="whiteSpace=wrap;html=1;" vertex="1" parent="1">
          <mxGeometry x="880" y="360" width="120" height="60" as="geometry" />
        </mxCell>
        <mxCell id="j57Bn9toDHAoZNaTp7Lq-36" style="edgeStyle=orthogonalEdgeStyle;rounded=0;orthogonalLoop=1;jettySize=auto;html=1;entryX=1.024;entryY=0.583;entryDx=0;entryDy=0;entryPerimeter=0;" edge="1" parent="1" source="j57Bn9toDHAoZNaTp7Lq-34" target="j57Bn9toDHAoZNaTp7Lq-23">
          <mxGeometry relative="1" as="geometry">
            <mxPoint x="1250" y="610" as="targetPoint" />
            <Array as="points">
              <mxPoint x="1260" y="730" />
              <mxPoint x="1260" y="597" />
            </Array>
          </mxGeometry>
        </mxCell>
        <mxCell id="j57Bn9toDHAoZNaTp7Lq-39" value="" style="edgeStyle=orthogonalEdgeStyle;rounded=0;orthogonalLoop=1;jettySize=auto;html=1;" edge="1" parent="1" source="j57Bn9toDHAoZNaTp7Lq-34" target="j57Bn9toDHAoZNaTp7Lq-38">
          <mxGeometry relative="1" as="geometry" />
        </mxCell>
        <mxCell id="j57Bn9toDHAoZNaTp7Lq-34" value="sum+=i" style="whiteSpace=wrap;html=1;" vertex="1" parent="1">
          <mxGeometry x="1040" y="720" width="120" height="60" as="geometry" />
        </mxCell>
        <mxCell id="j57Bn9toDHAoZNaTp7Lq-41" value="" style="edgeStyle=orthogonalEdgeStyle;rounded=0;orthogonalLoop=1;jettySize=auto;html=1;" edge="1" parent="1" source="j57Bn9toDHAoZNaTp7Lq-38" target="j57Bn9toDHAoZNaTp7Lq-40">
          <mxGeometry relative="1" as="geometry" />
        </mxCell>
        <mxCell id="j57Bn9toDHAoZNaTp7Lq-38" value="sum" style="shape=document;whiteSpace=wrap;html=1;boundedLbl=1;" vertex="1" parent="1">
          <mxGeometry x="1040" y="850" width="120" height="80" as="geometry" />
        </mxCell>
        <mxCell id="j57Bn9toDHAoZNaTp7Lq-40" value="end" style="ellipse;whiteSpace=wrap;html=1;" vertex="1" parent="1">
          <mxGeometry x="1060" y="1010" width="80" height="80" as="geometry" />
        </mxCell>
        <mxCell id="j57Bn9toDHAoZNaTp7Lq-44" value="" style="edgeStyle=orthogonalEdgeStyle;rounded=0;orthogonalLoop=1;jettySize=auto;html=1;" edge="1" parent="1" source="j57Bn9toDHAoZNaTp7Lq-42" target="j57Bn9toDHAoZNaTp7Lq-43">
          <mxGeometry relative="1" as="geometry" />
        </mxCell>
        <mxCell id="j57Bn9toDHAoZNaTp7Lq-42" value="start" style="ellipse;whiteSpace=wrap;html=1;" vertex="1" parent="1">
          <mxGeometry x="1940" y="-870" width="120" height="80" as="geometry" />
        </mxCell>
        <mxCell id="j57Bn9toDHAoZNaTp7Lq-47" value="" style="edgeStyle=orthogonalEdgeStyle;rounded=0;orthogonalLoop=1;jettySize=auto;html=1;" edge="1" parent="1" source="j57Bn9toDHAoZNaTp7Lq-43" target="j57Bn9toDHAoZNaTp7Lq-46">
          <mxGeometry relative="1" as="geometry" />
        </mxCell>
        <mxCell id="j57Bn9toDHAoZNaTp7Lq-43" value="a , b , S ,P" style="shape=parallelogram;perimeter=parallelogramPerimeter;whiteSpace=wrap;html=1;fixedSize=1;" vertex="1" parent="1">
          <mxGeometry x="1940" y="-700" width="120" height="60" as="geometry" />
        </mxCell>
        <mxCell id="j57Bn9toDHAoZNaTp7Lq-49" value="" style="edgeStyle=orthogonalEdgeStyle;rounded=0;orthogonalLoop=1;jettySize=auto;html=1;" edge="1" parent="1" source="j57Bn9toDHAoZNaTp7Lq-46" target="j57Bn9toDHAoZNaTp7Lq-48">
          <mxGeometry relative="1" as="geometry" />
        </mxCell>
        <mxCell id="j57Bn9toDHAoZNaTp7Lq-46" value="S = a*b&lt;div&gt;P=2(a+b)&lt;/div&gt;" style="whiteSpace=wrap;html=1;" vertex="1" parent="1">
          <mxGeometry x="1940" y="-560" width="120" height="60" as="geometry" />
        </mxCell>
        <mxCell id="j57Bn9toDHAoZNaTp7Lq-51" value="" style="edgeStyle=orthogonalEdgeStyle;rounded=0;orthogonalLoop=1;jettySize=auto;html=1;" edge="1" parent="1" source="j57Bn9toDHAoZNaTp7Lq-48" target="j57Bn9toDHAoZNaTp7Lq-50">
          <mxGeometry relative="1" as="geometry" />
        </mxCell>
        <mxCell id="j57Bn9toDHAoZNaTp7Lq-48" value="S,P" style="shape=document;whiteSpace=wrap;html=1;boundedLbl=1;" vertex="1" parent="1">
          <mxGeometry x="1940" y="-430" width="120" height="80" as="geometry" />
        </mxCell>
        <mxCell id="j57Bn9toDHAoZNaTp7Lq-50" value="end" style="ellipse;whiteSpace=wrap;html=1;" vertex="1" parent="1">
          <mxGeometry x="1960" y="-270" width="80" height="80" as="geometry" />
        </mxCell>
      </root>
    </mxGraphModel>
  </diagram>
</mxfile>
